<svg xmlns="http://www.w3.org/2000/svg" width="359" height="188" viewBox="0 0 359 188"><script xmlns=""/>
    <g fill="none" fill-rule="evenodd">
        <path fill="#FFF" d="M0 0h359v188H0z"/>
        <g fill-rule="nonzero">
            <path fill="#000" d="M148.368 61h6.659L166 93h-6.662l-2.348-6.885h-10.976L143.665 93H137z"/>
            <path fill="#FFF" d="M148 81h8l-4.003-12L148 81z"/>
            <path fill="#000" d="M167 61h6.682l12.172 21.466V61h6.292v32h-6.682l-12.178-21.47V93H167V61zm37.321 0h6.682L222 93h-6.682l-1.954-6.885H201.96L199.607 93h-6.286l11-32z"/>
            <path fill="#FFF" d="M204 81h8l-3.791-12h-.418L204 81z"/>
            <path fill="#000" d="M223 60.393h6.323v24.973h14.617v5.857H223v-30.83zm34.376-.39c9.19-.157 14.617 6.93 14.624 15.998-.007 8.871-5.433 15.953-14.624 15.999-9.26-.046-14.69-7.128-14.618-15.999-.072-9.069 5.358-16.151 14.618-15.998z"/>
            <path fill="#FFF" d="M257.191 86.997c5.776.145 7.96-5.084 7.8-10.3.16-5.418-2.024-10.647-7.8-10.697-5.847.05-8.032 5.279-8.191 10.697.16 5.213 2.344 10.442 8.191 10.3z"/>
            <path fill="#000" d="M298.24 87.923c-2.335 3.113-5.346 4.28-8.314 4.325-9.168-.046-14.619-7.183-14.661-16.122.046-9.139 5.493-16.279 14.661-16.121 6.19-.158 11.968 3.738 12.678 10.613h-6.339c-.69-3.283-3.16-5.06-6.339-5.108-5.823.049-8.042 5.24-7.93 10.616-.109 5.178 2.11 10.368 7.93 10.224 4.345.144 6.814-2.235 7.125-6.685h-6.729v-4.718H303v16.515h-3.962l-.799-3.54zM137 98.933h12.678c7.81-.01 13.631 5.007 13.47 15.335.161 8.877-4.276 15.539-13.47 15.732H137V98.933z"/>
            <path fill="#FFF" d="M143 125h5.735c3.68-.007 7.195-2.466 7.265-9.598-.07-6.156-2.09-10.205-8.409-10.402H143v20z"/>
            <path fill="#000" d="M164.288 99.635h22.043v5.489h-15.742v6.668h14.555v5.482h-14.555v7.455h16.139v5.877h-22.44v-30.97zm41.32 30.971h-7.474l-9.839-30.97h6.687l6.694 21.561 6.687-21.562h7.084l-9.839 30.971zm11.026 0h6.297v-30.97h-6.297v30.97zm29.127-20.778c-.23-2.914-3.064-5.24-6.297-5.096-5.867-.147-8.071 5.028-7.878 10.585-.193 4.962 2.01 10.137 7.878 10.19 3.984-.056 6.231-2.898 6.687-7.057h6.297c-.604 7.778-5.713 12.699-12.984 12.545-9.193.154-14.598-6.962-14.565-15.678-.033-9.311 5.375-16.426 14.565-16.469 6.526.043 12.01 4.012 12.984 10.977h-6.687v.003zm9.042-10.193h22.432v5.489h-15.739v6.668h14.568v5.482h-14.568v7.455h16.136v5.877h-22.83v-30.97zm30.313 20.383c.033 4.273 3.112 5.87 6.687 5.884 2.204-.013 5.7-.703 5.51-3.92.193-3.251-4.26-3.813-8.655-5.1-4.382-1.13-8.832-2.895-8.661-8.622-.174-6.35 5.565-9.37 11.016-9.412 6.11.043 11.806 2.846 11.806 9.801h-6.297c-.23-3.548-2.768-4.499-5.906-4.31-2.056-.189-4.47.72-4.323 3.134-.147 2.542 1.27 2.849 8.662 4.704 2.21.69 8.865 2.11 9.045 9.02-.18 5.727-4.457 9.952-12.587 9.798-6.513.154-12.663-3.208-12.594-10.977h6.297zM60 130.606h66.117V62H60v68.606z"/>
            <path fill="#FFF" d="M75 120l41-24.198L75 72z"/>
        </g>
    </g>
</svg>